<svg width="56" height="56" viewBox="0 0 56 56" fill="none" xmlns="http://www.w3.org/2000/svg">
<g clip-path="url(#clip0_2895_13257)">
<path d="M27.7627 43.6609C27.7627 44.6395 28.5583 45.4424 29.5316 45.3425C38.16 44.4571 44.8908 37.1669 44.8908 28.3046C44.8908 19.4424 38.16 12.1521 29.5316 11.2667C28.5583 11.1668 27.7627 11.9698 27.7627 12.9484V17.6734C27.7627 18.652 28.5635 19.4268 29.5234 19.6202C33.5727 20.4366 36.6221 24.0145 36.6221 28.3046C36.6221 32.5947 33.5727 36.1726 29.5234 36.989C28.5635 37.1825 27.7627 37.9573 27.7627 38.9358V43.6609Z" fill="#3F75FF"/>
<path d="M22.4471 14.4589C22.4471 13.2543 21.2676 12.4048 20.1873 12.9383C14.5274 15.7339 10.6345 21.5646 10.6345 28.3046C10.6345 35.0446 14.5274 40.8754 20.1873 43.6709C21.2676 44.2043 22.4471 43.3548 22.4471 42.1502V14.4589Z" fill="#3F75FF"/>
<g opacity="0.4" filter="url(#filter0_f_2895_13257)">
<path d="M31.1719 40.2517C31.1719 41.2304 31.9675 42.0332 32.9408 41.9334C41.5692 41.048 48.3 33.7577 48.3 24.8954C48.3 16.0332 41.5692 8.74288 32.9408 7.85754C31.9675 7.75765 31.1719 8.56058 31.1719 9.5392V14.2642C31.1719 15.2428 31.9727 16.0176 32.9325 16.211C36.9818 17.0274 40.0313 20.6053 40.0313 24.8954C40.0313 29.1855 36.9818 32.7635 32.9325 33.5799C31.9727 33.7733 31.1719 34.5481 31.1719 35.5267V40.2517Z" fill="#3F75FF"/>
<path d="M25.8563 11.0497C25.8563 9.84512 24.6768 8.99565 23.5965 9.52908C17.9365 12.3247 14.0437 18.1554 14.0437 24.8954C14.0437 31.6354 17.9365 37.4662 23.5965 40.2617C24.6768 40.7951 25.8563 39.9456 25.8563 38.741V11.0497Z" fill="#3F75FF"/>
</g>
</g>
<defs>
<filter id="filter0_f_2895_13257" x="2.0437" y="-4.15088" width="58.2563" height="58.0928" filterUnits="userSpaceOnUse" color-interpolation-filters="sRGB">
<feFlood flood-opacity="0" result="BackgroundImageFix"/>
<feBlend mode="normal" in="SourceGraphic" in2="BackgroundImageFix" result="shape"/>
<feGaussianBlur stdDeviation="6" result="effect1_foregroundBlur_2895_13257"/>
</filter>
<clipPath id="clip0_2895_13257">
<rect width="56" height="56" fill="white"/>
</clipPath>
</defs>
</svg>
